<svg xmlns="http://www.w3.org/2000/svg" viewBox="0 0 1200 675" role="img" aria-label="Verified software pricing comparison table mockup">
  <defs>
    <linearGradient id="bg" x1="0" y1="0" x2="1" y2="1">
      <stop offset="0%" stop-color="#151d2b"/>
      <stop offset="100%" stop-color="#26374e"/>
    </linearGradient>
  </defs>
  <rect width="1200" height="675" fill="url(#bg)"/>
  <rect x="76" y="66" width="1048" height="543" rx="22" fill="#121a26"/>
  <rect x="110" y="100" width="330" height="32" rx="10" fill="#f0a63d"/>
  <rect x="812" y="100" width="276" height="32" rx="10" fill="#22303f"/>

  <!-- table header -->
  <rect x="110" y="172" width="978" height="46" rx="10" fill="#1c2837"/>
  <rect x="134" y="188" width="180" height="14" rx="6" fill="#4a6076"/>
  <rect x="470" y="188" width="120" height="14" rx="6" fill="#4a6076"/>
  <rect x="700" y="188" width="110" height="14" rx="6" fill="#4a6076"/>
  <rect x="900" y="188" width="140" height="14" rx="6" fill="#4a6076"/>

  <!-- rows -->
  <g fill="#182333">
    <rect x="110" y="234" width="978" height="62" rx="10"/>
    <rect x="110" y="310" width="978" height="62" rx="10"/>
    <rect x="110" y="386" width="978" height="62" rx="10"/>
    <rect x="110" y="462" width="978" height="62" rx="10"/>
  </g>

  <g fill="#33465c">
    <rect x="134" y="256" width="212" height="16" rx="6"/>
    <rect x="134" y="332" width="176" height="16" rx="6"/>
    <rect x="134" y="408" width="230" height="16" rx="6"/>
    <rect x="134" y="484" width="192" height="16" rx="6"/>
  </g>

  <!-- price cells -->
  <g fill="#f0a63d">
    <rect x="470" y="256" width="96" height="16" rx="6"/>
    <rect x="470" y="332" width="112" height="16" rx="6"/>
    <rect x="470" y="408" width="84" height="16" rx="6"/>
    <rect x="470" y="484" width="104" height="16" rx="6"/>
  </g>

  <g fill="#2c3d51">
    <rect x="700" y="256" width="88" height="16" rx="6"/>
    <rect x="700" y="332" width="72" height="16" rx="6"/>
    <rect x="700" y="408" width="94" height="16" rx="6"/>
    <rect x="700" y="484" width="66" height="16" rx="6"/>
  </g>

  <!-- verified badges -->
  <g>
    <rect x="900" y="250" width="140" height="28" rx="14" fill="#1f3a2e"/>
    <circle cx="922" cy="264" r="7" fill="#5fc98a"/>
    <rect x="940" y="258" width="82" height="12" rx="6" fill="#3f7a5c"/>

    <rect x="900" y="326" width="140" height="28" rx="14" fill="#1f3a2e"/>
    <circle cx="922" cy="340" r="7" fill="#5fc98a"/>
    <rect x="940" y="334" width="82" height="12" rx="6" fill="#3f7a5c"/>

    <rect x="900" y="402" width="140" height="28" rx="14" fill="#1f3a2e"/>
    <circle cx="922" cy="416" r="7" fill="#5fc98a"/>
    <rect x="940" y="410" width="82" height="12" rx="6" fill="#3f7a5c"/>

    <rect x="900" y="478" width="140" height="28" rx="14" fill="#1f3a2e"/>
    <circle cx="922" cy="492" r="7" fill="#5fc98a"/>
    <rect x="940" y="486" width="82" height="12" rx="6" fill="#3f7a5c"/>
  </g>

  <rect x="110" y="548" width="392" height="14" rx="6" fill="#243244"/>
</svg>
